<svg width="21" height="22" viewBox="0 0 21 22" fill="none" xmlns="http://www.w3.org/2000/svg">
<g id="search">
<path id="Shape" opacity="0.64" fill-rule="evenodd" clip-rule="evenodd" d="M15.2727 15.3044L20.0454 20.087C20.3318 20.3739 20.2363 20.8522 19.95 21.1392C19.6637 21.4261 19.1864 21.4261 18.9 21.1392L14.1273 16.3566V16.2609C12.4091 17.6 10.1182 18.2696 7.73181 17.887C2.95911 17.1218 -0.381836 12.7217 0.286377 7.84351C1.05005 2.96521 5.53638 -0.382568 10.3091 0.286987C15.0818 1.05219 18.4227 5.45221 17.7545 10.3304C17.4681 12.3392 16.6091 13.9652 15.2727 15.3044ZM1.71826 8.03479C1.14551 12.1478 4.00916 15.8783 8.01819 16.4522C12.0273 17.0261 15.8455 14.1566 16.4182 10.1392C16.991 6.02612 14.1273 2.29565 10.1183 1.72174C6.01367 1.14783 2.29102 4.0174 1.71826 8.03479Z" fill="#484848"/>
</g>
</svg>
